# xmcd
#
# Track frame offsets:
#	150
#	15620
#	30098
#	42920
#	57722
#	74646
#	87227
#	100850
#	113860
#	127571
#	146329
#	158743
#	174797
#	193487
#
# Disc length: 2818 seconds
#
# Revision: 0
# Processed by: cddbd v1.5.2PL0 Copyright (c) Steve Scherf et al.
# Submitted via: EasyCDDAExtractor 15.2.1.1
#
DISCID=b30b000e
DTITLE=Luan Santana - Ao Vivo no Rio
DYEAR=2011
DGENRE=Sertanejo Universitario
TTITLE0=Adrenalina
TTITLE1=Um Beijo
TTITLE2=Palácios e Castelos
TTITLE3=Química do Amor – Part. Ivete Sangalo
TTITLE4=As Lembranças Vão Na Mala
TTITLE5=Não Era Pra Ser
TTITLE6=A Bússola
TTITLE7=Feiticeiro
TTITLE8=Superamor
TTITLE9=Meu Menino ( Minha Menina) – Part. Belinda
TTITLE10=Desculpas
TTITLE11=Amar Não é Pecado
TTITLE12=Pot-Pourri: Amor Distante, Inquilina de Violeiro – Part. Zezé Di Cama
TTITLE12=rgo and Luciano
TTITLE13=Conquistando o Impossível
EXTD=
EXTT0=
EXTT1=
EXTT2=
EXTT3=
EXTT4=
EXTT5=
EXTT6=
EXTT7=
EXTT8=
EXTT9=
EXTT10=
EXTT11=
EXTT12=
EXTT13=
PLAYORDER=
